<svg width="15" height="15" viewBox="0 0 15 15" fill="none" xmlns="http://www.w3.org/2000/svg">
<mask id="path-1-outside-1_22_65" maskUnits="userSpaceOnUse" x="-1.25" y="-0.987793" width="17" height="16" fill="black">
<rect fill="white" x="-1.25" y="-0.987793" width="17" height="16"/>
<path d="M0.55 3.97221H0.71C0.976667 3.97221 1.11 4.10554 1.11 4.37221V10.6922C1.11 11.4789 1.30333 12.0722 1.69 12.4722C2.09 12.8722 2.65 13.0722 3.37 13.0722C4.09 13.0722 4.71 12.7855 5.23 12.2122C5.35 12.0655 5.47667 11.9922 5.61 11.9922C5.86333 11.9922 5.99 12.1389 5.99 12.4322C5.99 12.5522 5.95667 12.6589 5.89 12.7522C5.62333 13.1255 5.25 13.4322 4.77 13.6722C4.29 13.8989 3.78333 14.0122 3.25 14.0122C2.33 14.0122 1.58333 13.7255 1.01 13.1522C0.45 12.5655 0.17 11.7522 0.17 10.7122V4.37221C0.17 4.10554 0.296667 3.97221 0.55 3.97221ZM6.47 4.01221H6.67C6.92333 4.01221 7.05 4.14554 7.05 4.41221V11.6722C7.05 12.1922 7.09 12.5522 7.17 12.7522C7.26333 12.9389 7.43667 13.0655 7.69 13.1322L7.91 13.1922C8.11 13.2322 8.21 13.3189 8.21 13.4522V13.6722C8.21 13.8989 8.07667 14.0122 7.81 14.0122C7.15667 14.0122 6.70333 13.8189 6.45 13.4322C6.21 13.0455 6.09 12.4522 6.09 11.6522V4.41221C6.09 4.14554 6.21667 4.01221 6.47 4.01221ZM6.99094 0.0122061H9.15094C10.7509 0.0122061 11.9176 0.232206 12.6509 0.672206C13.6776 1.29887 14.1909 2.29887 14.1909 3.67221C14.1643 4.31221 13.9843 4.91887 13.6509 5.49221C13.3176 6.06554 12.7776 6.48554 12.0309 6.75221C12.6976 6.89887 13.2443 7.17887 13.6709 7.59221C14.1109 7.99221 14.4043 8.39887 14.5509 8.81221C14.6976 9.22554 14.7709 9.71887 14.7709 10.2922C14.7709 10.8655 14.6309 11.4455 14.3509 12.0322C14.0843 12.6189 13.6909 13.0655 13.1709 13.3722C12.4109 13.7989 11.3309 14.0122 9.93094 14.0122H7.03094C6.68427 14.0122 6.44427 13.9522 6.31094 13.8322C6.19094 13.6989 6.13094 13.4522 6.13094 13.0922V0.892207C6.13094 0.54554 6.18427 0.312206 6.29094 0.192206C6.41094 0.0722061 6.64427 0.0122061 6.99094 0.0122061ZM9.13094 1.01221H7.13094V13.0322H10.2509C12.5976 13.0322 13.7709 12.0789 13.7709 10.1722C13.7709 9.38554 13.4443 8.70554 12.7909 8.13221C12.1509 7.54554 11.2443 7.25221 10.0709 7.25221H8.73094C8.58427 7.25221 8.4776 7.25221 8.41094 7.25221C8.34427 7.23887 8.26427 7.19887 8.17094 7.13221C8.09094 7.05221 8.05094 6.92554 8.05094 6.75221C8.05094 6.56554 8.1176 6.44554 8.25094 6.39221C8.3976 6.33887 8.5976 6.31221 8.85094 6.31221H10.1109C11.2176 6.31221 12.0043 6.03887 12.4709 5.49221C12.9509 4.94554 13.1909 4.33221 13.1909 3.65221C13.1909 2.94554 12.9643 2.35887 12.5109 1.89221C11.9643 1.30554 10.8376 1.01221 9.13094 1.01221Z"/>
</mask>
<path d="M0.55 3.97221H0.71C0.976667 3.97221 1.11 4.10554 1.11 4.37221V10.6922C1.11 11.4789 1.30333 12.0722 1.69 12.4722C2.09 12.8722 2.65 13.0722 3.37 13.0722C4.09 13.0722 4.71 12.7855 5.23 12.2122C5.35 12.0655 5.47667 11.9922 5.61 11.9922C5.86333 11.9922 5.99 12.1389 5.99 12.4322C5.99 12.5522 5.95667 12.6589 5.89 12.7522C5.62333 13.1255 5.25 13.4322 4.77 13.6722C4.29 13.8989 3.78333 14.0122 3.25 14.0122C2.33 14.0122 1.58333 13.7255 1.01 13.1522C0.45 12.5655 0.17 11.7522 0.17 10.7122V4.37221C0.17 4.10554 0.296667 3.97221 0.55 3.97221ZM6.47 4.01221H6.67C6.92333 4.01221 7.05 4.14554 7.05 4.41221V11.6722C7.05 12.1922 7.09 12.5522 7.17 12.7522C7.26333 12.9389 7.43667 13.0655 7.69 13.1322L7.91 13.1922C8.11 13.2322 8.21 13.3189 8.21 13.4522V13.6722C8.21 13.8989 8.07667 14.0122 7.81 14.0122C7.15667 14.0122 6.70333 13.8189 6.45 13.4322C6.21 13.0455 6.09 12.4522 6.09 11.6522V4.41221C6.09 4.14554 6.21667 4.01221 6.47 4.01221ZM6.99094 0.0122061H9.15094C10.7509 0.0122061 11.9176 0.232206 12.6509 0.672206C13.6776 1.29887 14.1909 2.29887 14.1909 3.67221C14.1643 4.31221 13.9843 4.91887 13.6509 5.49221C13.3176 6.06554 12.7776 6.48554 12.0309 6.75221C12.6976 6.89887 13.2443 7.17887 13.6709 7.59221C14.1109 7.99221 14.4043 8.39887 14.5509 8.81221C14.6976 9.22554 14.7709 9.71887 14.7709 10.2922C14.7709 10.8655 14.6309 11.4455 14.3509 12.0322C14.0843 12.6189 13.6909 13.0655 13.1709 13.3722C12.4109 13.7989 11.3309 14.0122 9.93094 14.0122H7.03094C6.68427 14.0122 6.44427 13.9522 6.31094 13.8322C6.19094 13.6989 6.13094 13.4522 6.13094 13.0922V0.892207C6.13094 0.54554 6.18427 0.312206 6.29094 0.192206C6.41094 0.0722061 6.64427 0.0122061 6.99094 0.0122061ZM9.13094 1.01221H7.13094V13.0322H10.2509C12.5976 13.0322 13.7709 12.0789 13.7709 10.1722C13.7709 9.38554 13.4443 8.70554 12.7909 8.13221C12.1509 7.54554 11.2443 7.25221 10.0709 7.25221H8.73094C8.58427 7.25221 8.4776 7.25221 8.41094 7.25221C8.34427 7.23887 8.26427 7.19887 8.17094 7.13221C8.09094 7.05221 8.05094 6.92554 8.05094 6.75221C8.05094 6.56554 8.1176 6.44554 8.25094 6.39221C8.3976 6.33887 8.5976 6.31221 8.85094 6.31221H10.1109C11.2176 6.31221 12.0043 6.03887 12.4709 5.49221C12.9509 4.94554 13.1909 4.33221 13.1909 3.65221C13.1909 2.94554 12.9643 2.35887 12.5109 1.89221C11.9643 1.30554 10.8376 1.01221 9.13094 1.01221Z" fill="white"/>
<path d="M1.69 12.4722L1.33045 12.8198L1.33645 12.8258L1.69 12.4722ZM5.23 12.2122L5.60036 12.5481L5.60891 12.5387L5.61698 12.5288L5.23 12.2122ZM5.89 12.7522L6.29687 13.0428L6.29687 13.0428L5.89 12.7522ZM4.77 13.6722L4.98356 14.1244L4.99361 14.1194L4.77 13.6722ZM1.01 13.1522L0.648225 13.4975L0.656447 13.5058L1.01 13.1522ZM7.17 12.7522L6.70576 12.9379L6.71349 12.9572L6.72279 12.9758L7.17 12.7522ZM7.69 13.1322L7.82156 12.6498L7.81725 12.6487L7.69 13.1322ZM7.91 13.1922L7.77844 13.6746L7.79506 13.6791L7.81194 13.6825L7.91 13.1922ZM6.45 13.4322L6.02505 13.696L6.03177 13.7062L6.45 13.4322ZM0.55 4.47221H0.71V3.47221H0.55V4.47221ZM0.71 4.47221C0.766261 4.47221 0.71662 4.48593 0.656447 4.42576C0.596274 4.36559 0.61 4.31595 0.61 4.37221H1.61C1.61 4.1618 1.55706 3.91216 1.36355 3.71865C1.17005 3.52515 0.920406 3.47221 0.71 3.47221V4.47221ZM0.61 4.37221V10.6922H1.61V4.37221H0.61ZM0.61 10.6922C0.61 11.5545 0.8221 12.2938 1.33051 12.8197L2.04949 12.1247C1.78457 11.8506 1.61 11.4032 1.61 10.6922H0.61ZM1.33645 12.8258C1.85403 13.3433 2.55537 13.5722 3.37 13.5722V12.5722C2.74463 12.5722 2.32597 12.4011 2.04355 12.1187L1.33645 12.8258ZM3.37 13.5722C4.24254 13.5722 4.99357 13.2171 5.60036 12.5481L4.85964 11.8763C4.42643 12.3539 3.93746 12.5722 3.37 12.5722V13.5722ZM5.61698 12.5288C5.63278 12.5095 5.64532 12.4969 5.65406 12.4891C5.66274 12.4814 5.66671 12.4792 5.66552 12.4799C5.66408 12.4808 5.65781 12.4841 5.64698 12.4872C5.6359 12.4903 5.62316 12.4922 5.61 12.4922V11.4922C5.27135 11.4922 5.01627 11.6838 4.84302 11.8956L5.61698 12.5288ZM5.61 12.4922C5.62624 12.4922 5.61826 12.4947 5.59621 12.4862C5.57116 12.4765 5.54133 12.4577 5.51659 12.429C5.49321 12.4019 5.48634 12.38 5.48576 12.378C5.48561 12.3775 5.49 12.3932 5.49 12.4322H6.49C6.49 12.225 6.44683 11.9762 6.27341 11.7754C6.08789 11.5606 5.83441 11.4922 5.61 11.4922V12.4922ZM5.49 12.4322C5.49 12.4454 5.48827 12.4514 5.48776 12.4531C5.48732 12.4545 5.48648 12.4569 5.48313 12.4616L6.29687 13.0428C6.42702 12.8606 6.49 12.6513 6.49 12.4322H5.49ZM5.48313 12.4616C5.27132 12.7581 4.96585 13.0153 4.54639 13.225L4.99361 14.1194C5.53415 13.8491 5.97535 13.493 6.29687 13.0428L5.48313 12.4616ZM4.5565 13.2201C4.14358 13.4151 3.70987 13.5122 3.25 13.5122V14.5122C3.8568 14.5122 4.43642 14.3827 4.9835 14.1243L4.5565 13.2201ZM3.25 13.5122C2.44317 13.5122 1.83021 13.2653 1.36355 12.7987L0.656447 13.5058C1.33646 14.1858 2.21683 14.5122 3.25 14.5122V13.5122ZM1.37168 12.807C0.923491 12.3374 0.67 11.6614 0.67 10.7122H-0.33C-0.33 11.843 -0.0234908 12.7936 0.648322 13.4974L1.37168 12.807ZM0.67 10.7122V4.37221H-0.33V10.7122H0.67ZM0.67 4.37221C0.67 4.30973 0.68529 4.35575 0.6275 4.41658C0.599503 4.44605 0.56939 4.46196 0.549294 4.46901C0.531883 4.47512 0.529124 4.47221 0.55 4.47221V3.47221C0.339531 3.47221 0.0915189 3.52886 -0.0974997 3.72783C-0.281956 3.922 -0.33 4.16802 -0.33 4.37221H0.67ZM6.47 4.51221H6.67V3.51221H6.47V4.51221ZM6.67 4.51221C6.69088 4.51221 6.68812 4.51512 6.67071 4.50901C6.65061 4.50196 6.6205 4.48605 6.5925 4.45658C6.53471 4.39575 6.55 4.34973 6.55 4.41221H7.55C7.55 4.20802 7.50196 3.962 7.3175 3.76783C7.12848 3.56887 6.88047 3.51221 6.67 3.51221V4.51221ZM6.55 4.41221V11.6722H7.55V4.41221H6.55ZM6.55 11.6722C6.55 12.1907 6.58623 12.6391 6.70576 12.9379L7.63424 12.5665C7.59377 12.4653 7.55 12.1937 7.55 11.6722H6.55ZM6.72279 12.9758C6.89622 13.3227 7.20858 13.5225 7.56275 13.6157L7.81725 12.6487C7.66476 12.6085 7.63045 12.5551 7.61721 12.5286L6.72279 12.9758ZM7.55844 13.6146L7.77844 13.6746L8.04156 12.7098L7.82156 12.6498L7.55844 13.6146ZM7.81194 13.6825C7.86907 13.6939 7.84914 13.7011 7.80754 13.6651C7.78339 13.6441 7.75608 13.6119 7.73607 13.5679C7.7161 13.5239 7.71 13.4828 7.71 13.4522H8.71C8.71 13.2418 8.623 13.0485 8.46247 12.9094C8.32086 12.7866 8.15093 12.7305 8.00806 12.7019L7.81194 13.6825ZM7.71 13.4522V13.6722H8.71V13.4522H7.71ZM7.71 13.6722C7.71 13.681 7.7086 13.6662 7.71951 13.6384C7.73161 13.6076 7.75387 13.5737 7.78618 13.5462C7.84681 13.4947 7.88432 13.5122 7.81 13.5122V14.5122C8.00234 14.5122 8.23985 14.4731 8.43382 14.3082C8.64336 14.1301 8.71 13.8858 8.71 13.6722H7.71ZM7.81 13.5122C7.24947 13.5122 6.99417 13.3504 6.86823 13.1582L6.03177 13.7062C6.41249 14.2873 7.06387 14.5122 7.81 14.5122V13.5122ZM6.87482 13.1685C6.7086 12.9007 6.59 12.4206 6.59 11.6522H5.59C5.59 12.4838 5.7114 13.1904 6.02518 13.6959L6.87482 13.1685ZM6.59 11.6522V4.41221H5.59V11.6522H6.59ZM6.59 4.41221C6.59 4.34973 6.60529 4.39575 6.5475 4.45658C6.5195 4.48605 6.48939 4.50196 6.46929 4.50901C6.45188 4.51512 6.44912 4.51221 6.47 4.51221V3.51221C6.25953 3.51221 6.01152 3.56887 5.8225 3.76783C5.63804 3.962 5.59 4.20802 5.59 4.41221H6.59ZM12.6509 0.672206L12.9114 0.245416L12.9082 0.243459L12.6509 0.672206ZM14.1909 3.67221L14.6905 3.69302L14.6909 3.68262V3.67221H14.1909ZM13.6509 5.49221L13.2187 5.2409L13.2187 5.2409L13.6509 5.49221ZM12.0309 6.75221L11.8628 6.28134L10.224 6.86663L11.9235 7.24053L12.0309 6.75221ZM13.6709 7.59221L13.323 7.95133L13.3287 7.95684L13.3346 7.96218L13.6709 7.59221ZM14.5509 8.81221L15.0222 8.645L15.0222 8.645L14.5509 8.81221ZM14.3509 12.0322L13.8996 11.8168L13.8958 11.8253L14.3509 12.0322ZM13.1709 13.3722L13.4158 13.8083L13.4249 13.8029L13.1709 13.3722ZM6.31094 13.8322L5.93929 14.1667L5.95689 14.1862L5.97646 14.2039L6.31094 13.8322ZM6.29094 0.192206L5.93738 -0.161347L5.92699 -0.150958L5.91723 -0.139976L6.29094 0.192206ZM7.13094 1.01221V0.512206H6.63094V1.01221H7.13094ZM7.13094 13.0322H6.63094V13.5322H7.13094V13.0322ZM12.7909 8.13221L12.453 8.50087L12.4611 8.50802L12.7909 8.13221ZM8.41094 7.25221L8.31288 7.7425L8.36143 7.75221H8.41094V7.25221ZM8.17094 7.13221L7.81738 7.48576L7.84665 7.51502L7.88032 7.53907L8.17094 7.13221ZM8.25094 6.39221L8.08007 5.92231L8.07261 5.92502L8.06524 5.92797L8.25094 6.39221ZM12.4709 5.49221L12.0952 5.16227L12.0907 5.16758L12.4709 5.49221ZM12.5109 1.89221L12.1451 2.23314L12.1523 2.2406L12.5109 1.89221ZM6.99094 0.512206H9.15094V-0.487794H6.99094V0.512206ZM9.15094 0.512206C10.727 0.512206 11.7802 0.732865 12.3937 1.10095L12.9082 0.243459C12.055 -0.268453 10.7749 -0.487794 9.15094 -0.487794V0.512206ZM12.3904 1.09898C13.2449 1.62056 13.6909 2.44383 13.6909 3.67221H14.6909C14.6909 2.15391 14.1103 0.977189 12.9114 0.245428L12.3904 1.09898ZM13.6914 3.65139C13.6682 4.20731 13.5127 4.73521 13.2187 5.2409L14.0832 5.74352C14.4559 5.10253 14.6603 4.4171 14.6905 3.69302L13.6914 3.65139ZM13.2187 5.2409C12.9558 5.69307 12.521 6.04626 11.8628 6.28134L12.1991 7.22308C13.0342 6.92482 13.6794 6.43801 14.0832 5.74352L13.2187 5.2409ZM11.9235 7.24053C12.5134 7.3703 12.9724 7.61169 13.323 7.95133L14.0188 7.23309C13.5161 6.74605 12.8818 6.42745 12.1384 6.26388L11.9235 7.24053ZM13.3346 7.96218C13.7343 8.32558 13.9687 8.66645 14.0797 8.97941L15.0222 8.645C14.8399 8.1313 14.4875 7.65883 14.0073 7.22224L13.3346 7.96218ZM14.0797 8.97941C14.2025 9.32542 14.2709 9.7593 14.2709 10.2922H15.2709C15.2709 9.67844 15.1927 9.12566 15.0222 8.645L14.0797 8.97941ZM14.2709 10.2922C14.2709 10.7816 14.1519 11.2884 13.8997 11.8168L14.8022 12.2476C15.11 11.6027 15.2709 10.9495 15.2709 10.2922H14.2709ZM13.8958 11.8253C13.6686 12.3251 13.3424 12.6906 12.9169 12.9415L13.4249 13.8029C14.0395 13.4405 14.5 12.9126 14.8061 12.2391L13.8958 11.8253ZM12.9262 12.9362C12.2732 13.3028 11.2919 13.5122 9.93094 13.5122V14.5122C11.37 14.5122 12.5487 14.2949 13.4157 13.8082L12.9262 12.9362ZM9.93094 13.5122H7.03094V14.5122H9.93094V13.5122ZM7.03094 13.5122C6.88351 13.5122 6.78026 13.4991 6.71221 13.4821C6.64296 13.4648 6.63273 13.4491 6.64542 13.4606L5.97646 14.2039C6.25571 14.4552 6.66095 14.5122 7.03094 14.5122V13.5122ZM6.68258 13.4977C6.69618 13.5128 6.67985 13.5034 6.66177 13.429C6.64419 13.3567 6.63094 13.2475 6.63094 13.0922H5.63094C5.63094 13.4695 5.68593 13.8852 5.93929 14.1667L6.68258 13.4977ZM6.63094 13.0922V0.892207H5.63094V13.0922H6.63094ZM6.63094 0.892207C6.63094 0.741236 6.64286 0.636463 6.65837 0.568619C6.67479 0.496754 6.68798 0.498137 6.66464 0.524388L5.91723 -0.139976C5.78723 0.0062752 5.72042 0.184325 5.68351 0.345794C5.64568 0.511283 5.63094 0.69651 5.63094 0.892207H6.63094ZM6.64449 0.545759C6.62008 0.570173 6.61601 0.558026 6.68046 0.541453C6.74296 0.52538 6.84294 0.512206 6.99094 0.512206V-0.487794C6.63037 -0.487794 6.21064 -0.4346 5.93738 -0.161347L6.64449 0.545759ZM9.13094 0.512206H7.13094V1.51221H9.13094V0.512206ZM6.63094 1.01221V13.0322H7.63094V1.01221H6.63094ZM7.13094 13.5322H10.2509V12.5322H7.13094V13.5322ZM10.2509 13.5322C11.4791 13.5322 12.4929 13.2848 13.2062 12.7053C13.9394 12.1096 14.2709 11.2332 14.2709 10.1722H13.2709C13.2709 11.0178 13.0158 11.5715 12.5756 11.9291C12.1156 12.3029 11.3695 12.5322 10.2509 12.5322V13.5322ZM14.2709 10.1722C14.2709 9.2255 13.8695 8.41349 13.1207 7.75639L12.4611 8.50802C13.019 8.99759 13.2709 9.54558 13.2709 10.1722H14.2709ZM13.1288 7.76363C12.3683 7.06647 11.3247 6.75221 10.0709 6.75221V7.75221C11.1638 7.75221 11.9336 8.02461 12.4531 8.50078L13.1288 7.76363ZM10.0709 6.75221H8.73094V7.75221H10.0709V6.75221ZM8.73094 6.75221C8.73065 6.75221 8.73037 6.75221 8.73008 6.75221C8.72979 6.75221 8.72951 6.75221 8.72922 6.75221C8.72894 6.75221 8.72865 6.75221 8.72836 6.75221C8.72808 6.75221 8.72779 6.75221 8.72751 6.75221C8.72722 6.75221 8.72694 6.75221 8.72665 6.75221C8.72637 6.75221 8.72608 6.75221 8.7258 6.75221C8.72551 6.75221 8.72523 6.75221 8.72494 6.75221C8.72466 6.75221 8.72438 6.75221 8.72409 6.75221C8.72381 6.75221 8.72352 6.75221 8.72324 6.75221C8.72296 6.75221 8.72267 6.75221 8.72239 6.75221C8.72211 6.75221 8.72182 6.75221 8.72154 6.75221C8.72126 6.75221 8.72097 6.75221 8.72069 6.75221C8.72041 6.75221 8.72013 6.75221 8.71984 6.75221C8.71956 6.75221 8.71928 6.75221 8.719 6.75221C8.71871 6.75221 8.71843 6.75221 8.71815 6.75221C8.71787 6.75221 8.71759 6.75221 8.7173 6.75221C8.71702 6.75221 8.71674 6.75221 8.71646 6.75221C8.71618 6.75221 8.7159 6.75221 8.71562 6.75221C8.71534 6.75221 8.71506 6.75221 8.71477 6.75221C8.71449 6.75221 8.71421 6.75221 8.71393 6.75221C8.71365 6.75221 8.71337 6.75221 8.71309 6.75221C8.71281 6.75221 8.71253 6.75221 8.71225 6.75221C8.71197 6.75221 8.71169 6.75221 8.71141 6.75221C8.71113 6.75221 8.71086 6.75221 8.71058 6.75221C8.7103 6.75221 8.71002 6.75221 8.70974 6.75221C8.70946 6.75221 8.70918 6.75221 8.7089 6.75221C8.70862 6.75221 8.70835 6.75221 8.70807 6.75221C8.70779 6.75221 8.70751 6.75221 8.70723 6.75221C8.70696 6.75221 8.70668 6.75221 8.7064 6.75221C8.70612 6.75221 8.70585 6.75221 8.70557 6.75221C8.70529 6.75221 8.70501 6.75221 8.70474 6.75221C8.70446 6.75221 8.70418 6.75221 8.70391 6.75221C8.70363 6.75221 8.70335 6.75221 8.70308 6.75221C8.7028 6.75221 8.70252 6.75221 8.70225 6.75221C8.70197 6.75221 8.7017 6.75221 8.70142 6.75221C8.70114 6.75221 8.70087 6.75221 8.70059 6.75221C8.70032 6.75221 8.70004 6.75221 8.69977 6.75221C8.69949 6.75221 8.69922 6.75221 8.69894 6.75221C8.69867 6.75221 8.69839 6.75221 8.69812 6.75221C8.69784 6.75221 8.69757 6.75221 8.6973 6.75221C8.69702 6.75221 8.69675 6.75221 8.69647 6.75221C8.6962 6.75221 8.69593 6.75221 8.69565 6.75221C8.69538 6.75221 8.6951 6.75221 8.69483 6.75221C8.69456 6.75221 8.69428 6.75221 8.69401 6.75221C8.69374 6.75221 8.69347 6.75221 8.69319 6.75221C8.69292 6.75221 8.69265 6.75221 8.69238 6.75221C8.6921 6.75221 8.69183 6.75221 8.69156 6.75221C8.69129 6.75221 8.69101 6.75221 8.69074 6.75221C8.69047 6.75221 8.6902 6.75221 8.68993 6.75221C8.68966 6.75221 8.68938 6.75221 8.68911 6.75221C8.68884 6.75221 8.68857 6.75221 8.6883 6.75221C8.68803 6.75221 8.68776 6.75221 8.68749 6.75221C8.68722 6.75221 8.68695 6.75221 8.68668 6.75221C8.68641 6.75221 8.68614 6.75221 8.68587 6.75221C8.6856 6.75221 8.68533 6.75221 8.68506 6.75221C8.68479 6.75221 8.68452 6.75221 8.68425 6.75221C8.68398 6.75221 8.68371 6.75221 8.68344 6.75221C8.68317 6.75221 8.6829 6.75221 8.68263 6.75221C8.68237 6.75221 8.6821 6.75221 8.68183 6.75221C8.68156 6.75221 8.68129 6.75221 8.68102 6.75221C8.68076 6.75221 8.68049 6.75221 8.68022 6.75221C8.67995 6.75221 8.67968 6.75221 8.67942 6.75221C8.67915 6.75221 8.67888 6.75221 8.67861 6.75221C8.67835 6.75221 8.67808 6.75221 8.67781 6.75221C8.67755 6.75221 8.67728 6.75221 8.67701 6.75221C8.67675 6.75221 8.67648 6.75221 8.67621 6.75221C8.67595 6.75221 8.67568 6.75221 8.67541 6.75221C8.67515 6.75221 8.67488 6.75221 8.67462 6.75221C8.67435 6.75221 8.67409 6.75221 8.67382 6.75221C8.67355 6.75221 8.67329 6.75221 8.67302 6.75221C8.67276 6.75221 8.67249 6.75221 8.67223 6.75221C8.67196 6.75221 8.6717 6.75221 8.67144 6.75221C8.67117 6.75221 8.67091 6.75221 8.67064 6.75221C8.67038 6.75221 8.67011 6.75221 8.66985 6.75221C8.66959 6.75221 8.66932 6.75221 8.66906 6.75221C8.6688 6.75221 8.66853 6.75221 8.66827 6.75221C8.66801 6.75221 8.66774 6.75221 8.66748 6.75221C8.66722 6.75221 8.66695 6.75221 8.66669 6.75221C8.66643 6.75221 8.66617 6.75221 8.6659 6.75221C8.66564 6.75221 8.66538 6.75221 8.66512 6.75221C8.66486 6.75221 8.66459 6.75221 8.66433 6.75221C8.66407 6.75221 8.66381 6.75221 8.66355 6.75221C8.66329 6.75221 8.66302 6.75221 8.66276 6.75221C8.6625 6.75221 8.66224 6.75221 8.66198 6.75221C8.66172 6.75221 8.66146 6.75221 8.6612 6.75221C8.66094 6.75221 8.66068 6.75221 8.66042 6.75221C8.66016 6.75221 8.6599 6.75221 8.65964 6.75221C8.65938 6.75221 8.65912 6.75221 8.65886 6.75221C8.6586 6.75221 8.65834 6.75221 8.65808 6.75221C8.65782 6.75221 8.65756 6.75221 8.6573 6.75221C8.65704 6.75221 8.65678 6.75221 8.65653 6.75221C8.65627 6.75221 8.65601 6.75221 8.65575 6.75221C8.65549 6.75221 8.65523 6.75221 8.65498 6.75221C8.65472 6.75221 8.65446 6.75221 8.6542 6.75221C8.65394 6.75221 8.65369 6.75221 8.65343 6.75221C8.65317 6.75221 8.65291 6.75221 8.65266 6.75221C8.6524 6.75221 8.65214 6.75221 8.65189 6.75221C8.65163 6.75221 8.65137 6.75221 8.65112 6.75221C8.65086 6.75221 8.6506 6.75221 8.65035 6.75221C8.65009 6.75221 8.64983 6.75221 8.64958 6.75221C8.64932 6.75221 8.64907 6.75221 8.64881 6.75221C8.64855 6.75221 8.6483 6.75221 8.64804 6.75221C8.64779 6.75221 8.64753 6.75221 8.64728 6.75221C8.64702 6.75221 8.64677 6.75221 8.64651 6.75221C8.64626 6.75221 8.646 6.75221 8.64575 6.75221C8.6455 6.75221 8.64524 6.75221 8.64499 6.75221C8.64473 6.75221 8.64448 6.75221 8.64423 6.75221C8.64397 6.75221 8.64372 6.75221 8.64346 6.75221C8.64321 6.75221 8.64296 6.75221 8.6427 6.75221C8.64245 6.75221 8.6422 6.75221 8.64195 6.75221C8.64169 6.75221 8.64144 6.75221 8.64119 6.75221C8.64093 6.75221 8.64068 6.75221 8.64043 6.75221C8.64018 6.75221 8.63993 6.75221 8.63967 6.75221C8.63942 6.75221 8.63917 6.75221 8.63892 6.75221C8.63867 6.75221 8.63841 6.75221 8.63816 6.75221C8.63791 6.75221 8.63766 6.75221 8.63741 6.75221C8.63716 6.75221 8.63691 6.75221 8.63666 6.75221C8.63641 6.75221 8.63616 6.75221 8.63591 6.75221C8.63565 6.75221 8.6354 6.75221 8.63515 6.75221C8.6349 6.75221 8.63465 6.75221 8.6344 6.75221C8.63415 6.75221 8.6339 6.75221 8.63366 6.75221C8.63341 6.75221 8.63316 6.75221 8.63291 6.75221C8.63266 6.75221 8.63241 6.75221 8.63216 6.75221C8.63191 6.75221 8.63166 6.75221 8.63141 6.75221C8.63117 6.75221 8.63092 6.75221 8.63067 6.75221C8.63042 6.75221 8.63017 6.75221 8.62992 6.75221C8.62968 6.75221 8.62943 6.75221 8.62918 6.75221C8.62893 6.75221 8.62869 6.75221 8.62844 6.75221C8.62819 6.75221 8.62794 6.75221 8.6277 6.75221C8.62745 6.75221 8.6272 6.75221 8.62696 6.75221C8.62671 6.75221 8.62646 6.75221 8.62622 6.75221C8.62597 6.75221 8.62572 6.75221 8.62548 6.75221C8.62523 6.75221 8.62498 6.75221 8.62474 6.75221C8.62449 6.75221 8.62425 6.75221 8.624 6.75221C8.62376 6.75221 8.62351 6.75221 8.62326 6.75221C8.62302 6.75221 8.62277 6.75221 8.62253 6.75221C8.62228 6.75221 8.62204 6.75221 8.6218 6.75221C8.62155 6.75221 8.62131 6.75221 8.62106 6.75221C8.62082 6.75221 8.62057 6.75221 8.62033 6.75221C8.62009 6.75221 8.61984 6.75221 8.6196 6.75221C8.61935 6.75221 8.61911 6.75221 8.61887 6.75221C8.61862 6.75221 8.61838 6.75221 8.61814 6.75221C8.61789 6.75221 8.61765 6.75221 8.61741 6.75221C8.61717 6.75221 8.61692 6.75221 8.61668 6.75221C8.61644 6.75221 8.6162 6.75221 8.61595 6.75221C8.61571 6.75221 8.61547 6.75221 8.61523 6.75221C8.61498 6.75221 8.61474 6.75221 8.6145 6.75221C8.61426 6.75221 8.61402 6.75221 8.61378 6.75221C8.61354 6.75221 8.61329 6.75221 8.61305 6.75221C8.61281 6.75221 8.61257 6.75221 8.61233 6.75221C8.61209 6.75221 8.61185 6.75221 8.61161 6.75221C8.61137 6.75221 8.61113 6.75221 8.61089 6.75221C8.61065 6.75221 8.61041 6.75221 8.61017 6.75221C8.60993 6.75221 8.60969 6.75221 8.60945 6.75221C8.60921 6.75221 8.60897 6.75221 8.60873 6.75221C8.60849 6.75221 8.60825 6.75221 8.60802 6.75221C8.60778 6.75221 8.60754 6.75221 8.6073 6.75221C8.60706 6.75221 8.60682 6.75221 8.60658 6.75221C8.60635 6.75221 8.60611 6.75221 8.60587 6.75221C8.60563 6.75221 8.60539 6.75221 8.60516 6.75221C8.60492 6.75221 8.60468 6.75221 8.60444 6.75221C8.60421 6.75221 8.60397 6.75221 8.60373 6.75221C8.6035 6.75221 8.60326 6.75221 8.60302 6.75221C8.60279 6.75221 8.60255 6.75221 8.60231 6.75221C8.60208 6.75221 8.60184 6.75221 8.6016 6.75221C8.60137 6.75221 8.60113 6.75221 8.6009 6.75221C8.60066 6.75221 8.60042 6.75221 8.60019 6.75221C8.59995 6.75221 8.59972 6.75221 8.59948 6.75221C8.59925 6.75221 8.59901 6.75221 8.59878 6.75221C8.59854 6.75221 8.59831 6.75221 8.59807 6.75221C8.59784 6.75221 8.5976 6.75221 8.59737 6.75221C8.59714 6.75221 8.5969 6.75221 8.59667 6.75221C8.59643 6.75221 8.5962 6.75221 8.59597 6.75221C8.59573 6.75221 8.5955 6.75221 8.59527 6.75221C8.59503 6.75221 8.5948 6.75221 8.59457 6.75221C8.59433 6.75221 8.5941 6.75221 8.59387 6.75221C8.59363 6.75221 8.5934 6.75221 8.59317 6.75221C8.59294 6.75221 8.5927 6.75221 8.59247 6.75221C8.59224 6.75221 8.59201 6.75221 8.59178 6.75221C8.59154 6.75221 8.59131 6.75221 8.59108 6.75221C8.59085 6.75221 8.59062 6.75221 8.59039 6.75221C8.59016 6.75221 8.58993 6.75221 8.58969 6.75221C8.58946 6.75221 8.58923 6.75221 8.589 6.75221C8.58877 6.75221 8.58854 6.75221 8.58831 6.75221C8.58808 6.75221 8.58785 6.75221 8.58762 6.75221C8.58739 6.75221 8.58716 6.75221 8.58693 6.75221C8.5867 6.75221 8.58647 6.75221 8.58624 6.75221C8.58601 6.75221 8.58578 6.75221 8.58555 6.75221C8.58533 6.75221 8.5851 6.75221 8.58487 6.75221C8.58464 6.75221 8.58441 6.75221 8.58418 6.75221C8.58395 6.75221 8.58372 6.75221 8.5835 6.75221C8.58327 6.75221 8.58304 6.75221 8.58281 6.75221C8.58258 6.75221 8.58236 6.75221 8.58213 6.75221C8.5819 6.75221 8.58167 6.75221 8.58145 6.75221C8.58122 6.75221 8.58099 6.75221 8.58077 6.75221C8.58054 6.75221 8.58031 6.75221 8.58009 6.75221C8.57986 6.75221 8.57963 6.75221 8.57941 6.75221C8.57918 6.75221 8.57895 6.75221 8.57873 6.75221C8.5785 6.75221 8.57828 6.75221 8.57805 6.75221C8.57782 6.75221 8.5776 6.75221 8.57737 6.75221C8.57715 6.75221 8.57692 6.75221 8.5767 6.75221C8.57647 6.75221 8.57625 6.75221 8.57602 6.75221C8.5758 6.75221 8.57557 6.75221 8.57535 6.75221C8.57512 6.75221 8.5749 6.75221 8.57468 6.75221C8.57445 6.75221 8.57423 6.75221 8.574 6.75221C8.57378 6.75221 8.57356 6.75221 8.57333 6.75221C8.57311 6.75221 8.57289 6.75221 8.57266 6.75221C8.57244 6.75221 8.57222 6.75221 8.57199 6.75221C8.57177 6.75221 8.57155 6.75221 8.57132 6.75221C8.5711 6.75221 8.57088 6.75221 8.57066 6.75221C8.57043 6.75221 8.57021 6.75221 8.56999 6.75221C8.56977 6.75221 8.56955 6.75221 8.56932 6.75221C8.5691 6.75221 8.56888 6.75221 8.56866 6.75221C8.56844 6.75221 8.56822 6.75221 8.568 6.75221C8.56777 6.75221 8.56755 6.75221 8.56733 6.75221C8.56711 6.75221 8.56689 6.75221 8.56667 6.75221C8.56645 6.75221 8.56623 6.75221 8.56601 6.75221C8.56579 6.75221 8.56557 6.75221 8.56535 6.75221C8.56513 6.75221 8.56491 6.75221 8.56469 6.75221C8.56447 6.75221 8.56425 6.75221 8.56403 6.75221C8.56381 6.75221 8.56359 6.75221 8.56337 6.75221C8.56315 6.75221 8.56294 6.75221 8.56272 6.75221C8.5625 6.75221 8.56228 6.75221 8.56206 6.75221C8.56184 6.75221 8.56162 6.75221 8.56141 6.75221C8.56119 6.75221 8.56097 6.75221 8.56075 6.75221C8.56053 6.75221 8.56032 6.75221 8.5601 6.75221C8.55988 6.75221 8.55966 6.75221 8.55945 6.75221C8.55923 6.75221 8.55901 6.75221 8.5588 6.75221C8.55858 6.75221 8.55836 6.75221 8.55815 6.75221C8.55793 6.75221 8.55771 6.75221 8.5575 6.75221C8.55728 6.75221 8.55706 6.75221 8.55685 6.75221C8.55663 6.75221 8.55642 6.75221 8.5562 6.75221C8.55599 6.75221 8.55577 6.75221 8.55555 6.75221C8.55534 6.75221 8.55512 6.75221 8.55491 6.75221C8.55469 6.75221 8.55448 6.75221 8.55426 6.75221C8.55405 6.75221 8.55384 6.75221 8.55362 6.75221C8.55341 6.75221 8.55319 6.75221 8.55298 6.75221C8.55276 6.75221 8.55255 6.75221 8.55234 6.75221C8.55212 6.75221 8.55191 6.75221 8.55169 6.75221C8.55148 6.75221 8.55127 6.75221 8.55105 6.75221C8.55084 6.75221 8.55063 6.75221 8.55042 6.75221C8.5502 6.75221 8.54999 6.75221 8.54978 6.75221C8.54956 6.75221 8.54935 6.75221 8.54914 6.75221C8.54893 6.75221 8.54872 6.75221 8.5485 6.75221C8.54829 6.75221 8.54808 6.75221 8.54787 6.75221C8.54766 6.75221 8.54744 6.75221 8.54723 6.75221C8.54702 6.75221 8.54681 6.75221 8.5466 6.75221C8.54639 6.75221 8.54618 6.75221 8.54597 6.75221C8.54576 6.75221 8.54555 6.75221 8.54534 6.75221C8.54512 6.75221 8.54491 6.75221 8.5447 6.75221C8.54449 6.75221 8.54428 6.75221 8.54407 6.75221C8.54386 6.75221 8.54365 6.75221 8.54345 6.75221C8.54324 6.75221 8.54303 6.75221 8.54282 6.75221C8.54261 6.75221 8.5424 6.75221 8.54219 6.75221C8.54198 6.75221 8.54177 6.75221 8.54156 6.75221C8.54135 6.75221 8.54115 6.75221 8.54094 6.75221C8.54073 6.75221 8.54052 6.75221 8.54031 6.75221C8.54011 6.75221 8.5399 6.75221 8.53969 6.75221C8.53948 6.75221 8.53927 6.75221 8.53907 6.75221C8.53886 6.75221 8.53865 6.75221 8.53845 6.75221C8.53824 6.75221 8.53803 6.75221 8.53782 6.75221C8.53762 6.75221 8.53741 6.75221 8.5372 6.75221C8.537 6.75221 8.53679 6.75221 8.53659 6.75221C8.53638 6.75221 8.53617 6.75221 8.53597 6.75221C8.53576 6.75221 8.53556 6.75221 8.53535 6.75221C8.53514 6.75221 8.53494 6.75221 8.53473 6.75221C8.53453 6.75221 8.53432 6.75221 8.53412 6.75221C8.53391 6.75221 8.53371 6.75221 8.5335 6.75221C8.5333 6.75221 8.53309 6.75221 8.53289 6.75221C8.53269 6.75221 8.53248 6.75221 8.53228 6.75221C8.53207 6.75221 8.53187 6.75221 8.53167 6.75221C8.53146 6.75221 8.53126 6.75221 8.53105 6.75221C8.53085 6.75221 8.53065 6.75221 8.53044 6.75221C8.53024 6.75221 8.53004 6.75221 8.52984 6.75221C8.52963 6.75221 8.52943 6.75221 8.52923 6.75221C8.52903 6.75221 8.52882 6.75221 8.52862 6.75221C8.52842 6.75221 8.52822 6.75221 8.52801 6.75221C8.52781 6.75221 8.52761 6.75221 8.52741 6.75221C8.52721 6.75221 8.52701 6.75221 8.5268 6.75221C8.5266 6.75221 8.5264 6.75221 8.5262 6.75221C8.526 6.75221 8.5258 6.75221 8.5256 6.75221C8.5254 6.75221 8.5252 6.75221 8.525 6.75221C8.5248 6.75221 8.5246 6.75221 8.5244 6.75221C8.5242 6.75221 8.524 6.75221 8.5238 6.75221C8.5236 6.75221 8.5234 6.75221 8.5232 6.75221C8.523 6.75221 8.5228 6.75221 8.5226 6.75221C8.5224 6.75221 8.5222 6.75221 8.522 6.75221C8.5218 6.75221 8.52161 6.75221 8.52141 6.75221C8.52121 6.75221 8.52101 6.75221 8.52081 6.75221C8.52061 6.75221 8.52041 6.75221 8.52022 6.75221C8.52002 6.75221 8.51982 6.75221 8.51962 6.75221C8.51943 6.75221 8.51923 6.75221 8.51903 6.75221C8.51883 6.75221 8.51864 6.75221 8.51844 6.75221C8.51824 6.75221 8.51805 6.75221 8.51785 6.75221C8.51765 6.75221 8.51746 6.75221 8.51726 6.75221C8.51706 6.75221 8.51687 6.75221 8.51667 6.75221C8.51647 6.75221 8.51628 6.75221 8.51608 6.75221C8.51589 6.75221 8.51569 6.75221 8.5155 6.75221C8.5153 6.75221 8.5151 6.75221 8.51491 6.75221C8.51471 6.75221 8.51452 6.75221 8.51432 6.75221C8.51413 6.75221 8.51393 6.75221 8.51374 6.75221C8.51355 6.75221 8.51335 6.75221 8.51316 6.75221C8.51296 6.75221 8.51277 6.75221 8.51257 6.75221C8.51238 6.75221 8.51219 6.75221 8.51199 6.75221C8.5118 6.75221 8.51161 6.75221 8.51141 6.75221C8.51122 6.75221 8.51103 6.75221 8.51083 6.75221C8.51064 6.75221 8.51045 6.75221 8.51025 6.75221C8.51006 6.75221 8.50987 6.75221 8.50968 6.75221C8.50948 6.75221 8.50929 6.75221 8.5091 6.75221C8.50891 6.75221 8.50871 6.75221 8.50852 6.75221C8.50833 6.75221 8.50814 6.75221 8.50795 6.75221C8.50776 6.75221 8.50756 6.75221 8.50737 6.75221C8.50718 6.75221 8.50699 6.75221 8.5068 6.75221C8.50661 6.75221 8.50642 6.75221 8.50623 6.75221C8.50604 6.75221 8.50585 6.75221 8.50566 6.75221C8.50547 6.75221 8.50528 6.75221 8.50509 6.75221C8.5049 6.75221 8.50471 6.75221 8.50452 6.75221C8.50433 6.75221 8.50414 6.75221 8.50395 6.75221C8.50376 6.75221 8.50357 6.75221 8.50338 6.75221C8.50319 6.75221 8.503 6.75221 8.50281 6.75221C8.50262 6.75221 8.50244 6.75221 8.50225 6.75221C8.50206 6.75221 8.50187 6.75221 8.50168 6.75221C8.50149 6.75221 8.50131 6.75221 8.50112 6.75221C8.50093 6.75221 8.50074 6.75221 8.50055 6.75221C8.50037 6.75221 8.50018 6.75221 8.49999 6.75221C8.4998 6.75221 8.49962 6.75221 8.49943 6.75221C8.49924 6.75221 8.49906 6.75221 8.49887 6.75221C8.49868 6.75221 8.4985 6.75221 8.49831 6.75221C8.49812 6.75221 8.49794 6.75221 8.49775 6.75221C8.49757 6.75221 8.49738 6.75221 8.49719 6.75221C8.49701 6.75221 8.49682 6.75221 8.49664 6.75221C8.49645 6.75221 8.49627 6.75221 8.49608 6.75221C8.4959 6.75221 8.49571 6.75221 8.49553 6.75221C8.49534 6.75221 8.49516 6.75221 8.49497 6.75221C8.49479 6.75221 8.4946 6.75221 8.49442 6.75221C8.49424 6.75221 8.49405 6.75221 8.49387 6.75221C8.49368 6.75221 8.4935 6.75221 8.49332 6.75221C8.49313 6.75221 8.49295 6.75221 8.49277 6.75221C8.49258 6.75221 8.4924 6.75221 8.49222 6.75221C8.49203 6.75221 8.49185 6.75221 8.49167 6.75221C8.49148 6.75221 8.4913 6.75221 8.49112 6.75221C8.49094 6.75221 8.49076 6.75221 8.49057 6.75221C8.49039 6.75221 8.49021 6.75221 8.49003 6.75221C8.48985 6.75221 8.48966 6.75221 8.48948 6.75221C8.4893 6.75221 8.48912 6.75221 8.48894 6.75221C8.48876 6.75221 8.48858 6.75221 8.4884 6.75221C8.48821 6.75221 8.48803 6.75221 8.48785 6.75221C8.48767 6.75221 8.48749 6.75221 8.48731 6.75221C8.48713 6.75221 8.48695 6.75221 8.48677 6.75221C8.48659 6.75221 8.48641 6.75221 8.48623 6.75221C8.48605 6.75221 8.48587 6.75221 8.48569 6.75221C8.48551 6.75221 8.48534 6.75221 8.48516 6.75221C8.48498 6.75221 8.4848 6.75221 8.48462 6.75221C8.48444 6.75221 8.48426 6.75221 8.48408 6.75221C8.48391 6.75221 8.48373 6.75221 8.48355 6.75221C8.48337 6.75221 8.48319 6.75221 8.48302 6.75221C8.48284 6.75221 8.48266 6.75221 8.48248 6.75221C8.4823 6.75221 8.48213 6.75221 8.48195 6.75221C8.48177 6.75221 8.4816 6.75221 8.48142 6.75221C8.48124 6.75221 8.48107 6.75221 8.48089 6.75221C8.48071 6.75221 8.48054 6.75221 8.48036 6.75221C8.48018 6.75221 8.48001 6.75221 8.47983 6.75221C8.47966 6.75221 8.47948 6.75221 8.4793 6.75221C8.47913 6.75221 8.47895 6.75221 8.47878 6.75221C8.4786 6.75221 8.47843 6.75221 8.47825 6.75221C8.47808 6.75221 8.4779 6.75221 8.47773 6.75221C8.47755 6.75221 8.47738 6.75221 8.4772 6.75221C8.47703 6.75221 8.47685 6.75221 8.47668 6.75221C8.47651 6.75221 8.47633 6.75221 8.47616 6.75221C8.47598 6.75221 8.47581 6.75221 8.47564 6.75221C8.47546 6.75221 8.47529 6.75221 8.47512 6.75221C8.47494 6.75221 8.47477 6.75221 8.4746 6.75221C8.47442 6.75221 8.47425 6.75221 8.47408 6.75221C8.47391 6.75221 8.47373 6.75221 8.47356 6.75221C8.47339 6.75221 8.47322 6.75221 8.47305 6.75221C8.47287 6.75221 8.4727 6.75221 8.47253 6.75221C8.47236 6.75221 8.47219 6.75221 8.47201 6.75221C8.47184 6.75221 8.47167 6.75221 8.4715 6.75221C8.47133 6.75221 8.47116 6.75221 8.47099 6.75221C8.47082 6.75221 8.47065 6.75221 8.47048 6.75221C8.47031 6.75221 8.47014 6.75221 8.46997 6.75221C8.4698 6.75221 8.46963 6.75221 8.46946 6.75221C8.46929 6.75221 8.46912 6.75221 8.46895 6.75221C8.46878 6.75221 8.46861 6.75221 8.46844 6.75221C8.46827 6.75221 8.4681 6.75221 8.46793 6.75221C8.46776 6.75221 8.46759 6.75221 8.46742 6.75221C8.46726 6.75221 8.46709 6.75221 8.46692 6.75221C8.46675 6.75221 8.46658 6.75221 8.46641 6.75221C8.46625 6.75221 8.46608 6.75221 8.46591 6.75221C8.46574 6.75221 8.46557 6.75221 8.46541 6.75221C8.46524 6.75221 8.46507 6.75221 8.46491 6.75221C8.46474 6.75221 8.46457 6.75221 8.4644 6.75221C8.46424 6.75221 8.46407 6.75221 8.4639 6.75221C8.46374 6.75221 8.46357 6.75221 8.46341 6.75221C8.46324 6.75221 8.46307 6.75221 8.46291 6.75221C8.46274 6.75221 8.46258 6.75221 8.46241 6.75221C8.46224 6.75221 8.46208 6.75221 8.46191 6.75221C8.46175 6.75221 8.46158 6.75221 8.46142 6.75221C8.46125 6.75221 8.46109 6.75221 8.46092 6.75221C8.46076 6.75221 8.46059 6.75221 8.46043 6.75221C8.46027 6.75221 8.4601 6.75221 8.45994 6.75221C8.45977 6.75221 8.45961 6.75221 8.45945 6.75221C8.45928 6.75221 8.45912 6.75221 8.45895 6.75221C8.45879 6.75221 8.45863 6.75221 8.45846 6.75221C8.4583 6.75221 8.45814 6.75221 8.45798 6.75221C8.45781 6.75221 8.45765 6.75221 8.45749 6.75221C8.45732 6.75221 8.45716 6.75221 8.457 6.75221C8.45684 6.75221 8.45668 6.75221 8.45651 6.75221C8.45635 6.75221 8.45619 6.75221 8.45603 6.75221C8.45587 6.75221 8.45571 6.75221 8.45554 6.75221C8.45538 6.75221 8.45522 6.75221 8.45506 6.75221C8.4549 6.75221 8.45474 6.75221 8.45458 6.75221C8.45442 6.75221 8.45426 6.75221 8.4541 6.75221C8.45394 6.75221 8.45378 6.75221 8.45362 6.75221C8.45346 6.75221 8.4533 6.75221 8.45314 6.75221C8.45298 6.75221 8.45282 6.75221 8.45266 6.75221C8.4525 6.75221 8.45234 6.75221 8.45218 6.75221C8.45202 6.75221 8.45186 6.75221 8.4517 6.75221C8.45154 6.75221 8.45138 6.75221 8.45123 6.75221C8.45107 6.75221 8.45091 6.75221 8.45075 6.75221C8.45059 6.75221 8.45043 6.75221 8.45028 6.75221C8.45012 6.75221 8.44996 6.75221 8.4498 6.75221C8.44964 6.75221 8.44949 6.75221 8.44933 6.75221C8.44917 6.75221 8.44901 6.75221 8.44886 6.75221C8.4487 6.75221 8.44854 6.75221 8.44839 6.75221C8.44823 6.75221 8.44807 6.75221 8.44792 6.75221C8.44776 6.75221 8.4476 6.75221 8.44745 6.75221C8.44729 6.75221 8.44714 6.75221 8.44698 6.75221C8.44682 6.75221 8.44667 6.75221 8.44651 6.75221C8.44636 6.75221 8.4462 6.75221 8.44605 6.75221C8.44589 6.75221 8.44574 6.75221 8.44558 6.75221C8.44543 6.75221 8.44527 6.75221 8.44512 6.75221C8.44496 6.75221 8.44481 6.75221 8.44465 6.75221C8.4445 6.75221 8.44435 6.75221 8.44419 6.75221C8.44404 6.75221 8.44388 6.75221 8.44373 6.75221C8.44358 6.75221 8.44342 6.75221 8.44327 6.75221C8.44312 6.75221 8.44296 6.75221 8.44281 6.75221C8.44266 6.75221 8.4425 6.75221 8.44235 6.75221C8.4422 6.75221 8.44205 6.75221 8.44189 6.75221C8.44174 6.75221 8.44159 6.75221 8.44144 6.75221C8.44128 6.75221 8.44113 6.75221 8.44098 6.75221C8.44083 6.75221 8.44068 6.75221 8.44052 6.75221C8.44037 6.75221 8.44022 6.75221 8.44007 6.75221C8.43992 6.75221 8.43977 6.75221 8.43962 6.75221C8.43947 6.75221 8.43932 6.75221 8.43916 6.75221C8.43901 6.75221 8.43886 6.75221 8.43871 6.75221C8.43856 6.75221 8.43841 6.75221 8.43826 6.75221C8.43811 6.75221 8.43796 6.75221 8.43781 6.75221C8.43766 6.75221 8.43751 6.75221 8.43736 6.75221C8.43721 6.75221 8.43707 6.75221 8.43692 6.75221C8.43677 6.75221 8.43662 6.75221 8.43647 6.75221C8.43632 6.75221 8.43617 6.75221 8.43602 6.75221C8.43587 6.75221 8.43573 6.75221 8.43558 6.75221C8.43543 6.75221 8.43528 6.75221 8.43513 6.75221C8.43499 6.75221 8.43484 6.75221 8.43469 6.75221C8.43454 6.75221 8.4344 6.75221 8.43425 6.75221C8.4341 6.75221 8.43395 6.75221 8.43381 6.75221C8.43366 6.75221 8.43351 6.75221 8.43337 6.75221C8.43322 6.75221 8.43307 6.75221 8.43293 6.75221C8.43278 6.75221 8.43263 6.75221 8.43249 6.75221C8.43234 6.75221 8.4322 6.75221 8.43205 6.75221C8.4319 6.75221 8.43176 6.75221 8.43161 6.75221C8.43147 6.75221 8.43132 6.75221 8.43118 6.75221C8.43103 6.75221 8.43089 6.75221 8.43074 6.75221C8.4306 6.75221 8.43045 6.75221 8.43031 6.75221C8.43016 6.75221 8.43002 6.75221 8.42988 6.75221C8.42973 6.75221 8.42959 6.75221 8.42944 6.75221C8.4293 6.75221 8.42916 6.75221 8.42901 6.75221C8.42887 6.75221 8.42872 6.75221 8.42858 6.75221C8.42844 6.75221 8.42829 6.75221 8.42815 6.75221C8.42801 6.75221 8.42787 6.75221 8.42772 6.75221C8.42758 6.75221 8.42744 6.75221 8.4273 6.75221C8.42715 6.75221 8.42701 6.75221 8.42687 6.75221C8.42673 6.75221 8.42658 6.75221 8.42644 6.75221C8.4263 6.75221 8.42616 6.75221 8.42602 6.75221C8.42588 6.75221 8.42573 6.75221 8.42559 6.75221C8.42545 6.75221 8.42531 6.75221 8.42517 6.75221C8.42503 6.75221 8.42489 6.75221 8.42475 6.75221C8.42461 6.75221 8.42447 6.75221 8.42433 6.75221C8.42419 6.75221 8.42405 6.75221 8.42391 6.75221C8.42377 6.75221 8.42363 6.75221 8.42349 6.75221C8.42335 6.75221 8.42321 6.75221 8.42307 6.75221C8.42293 6.75221 8.42279 6.75221 8.42265 6.75221C8.42251 6.75221 8.42237 6.75221 8.42223 6.75221C8.4221 6.75221 8.42196 6.75221 8.42182 6.75221C8.42168 6.75221 8.42154 6.75221 8.4214 6.75221C8.42127 6.75221 8.42113 6.75221 8.42099 6.75221C8.42085 6.75221 8.42071 6.75221 8.42058 6.75221C8.42044 6.75221 8.4203 6.75221 8.42016 6.75221C8.42003 6.75221 8.41989 6.75221 8.41975 6.75221C8.41962 6.75221 8.41948 6.75221 8.41934 6.75221C8.41921 6.75221 8.41907 6.75221 8.41893 6.75221C8.4188 6.75221 8.41866 6.75221 8.41852 6.75221C8.41839 6.75221 8.41825 6.75221 8.41812 6.75221C8.41798 6.75221 8.41785 6.75221 8.41771 6.75221C8.41758 6.75221 8.41744 6.75221 8.4173 6.75221C8.41717 6.75221 8.41703 6.75221 8.4169 6.75221C8.41677 6.75221 8.41663 6.75221 8.4165 6.75221C8.41636 6.75221 8.41623 6.75221 8.41609 6.75221C8.41596 6.75221 8.41583 6.75221 8.41569 6.75221C8.41556 6.75221 8.41542 6.75221 8.41529 6.75221C8.41516 6.75221 8.41502 6.75221 8.41489 6.75221C8.41476 6.75221 8.41462 6.75221 8.41449 6.75221C8.41436 6.75221 8.41422 6.75221 8.41409 6.75221C8.41396 6.75221 8.41383 6.75221 8.41369 6.75221C8.41356 6.75221 8.41343 6.75221 8.4133 6.75221C8.41317 6.75221 8.41303 6.75221 8.4129 6.75221C8.41277 6.75221 8.41264 6.75221 8.41251 6.75221C8.41238 6.75221 8.41224 6.75221 8.41211 6.75221C8.41198 6.75221 8.41185 6.75221 8.41172 6.75221C8.41159 6.75221 8.41146 6.75221 8.41133 6.75221C8.4112 6.75221 8.41107 6.75221 8.41094 6.75221V7.75221C8.41107 7.75221 8.4112 7.75221 8.41133 7.75221C8.41146 7.75221 8.41159 7.75221 8.41172 7.75221C8.41185 7.75221 8.41198 7.75221 8.41211 7.75221C8.41224 7.75221 8.41238 7.75221 8.41251 7.75221C8.41264 7.75221 8.41277 7.75221 8.4129 7.75221C8.41303 7.75221 8.41317 7.75221 8.4133 7.75221C8.41343 7.75221 8.41356 7.75221 8.41369 7.75221C8.41383 7.75221 8.41396 7.75221 8.41409 7.75221C8.41422 7.75221 8.41436 7.75221 8.41449 7.75221C8.41462 7.75221 8.41476 7.75221 8.41489 7.75221C8.41502 7.75221 8.41516 7.75221 8.41529 7.75221C8.41542 7.75221 8.41556 7.75221 8.41569 7.75221C8.41583 7.75221 8.41596 7.75221 8.41609 7.75221C8.41623 7.75221 8.41636 7.75221 8.4165 7.75221C8.41663 7.75221 8.41677 7.75221 8.4169 7.75221C8.41703 7.75221 8.41717 7.75221 8.4173 7.75221C8.41744 7.75221 8.41758 7.75221 8.41771 7.75221C8.41785 7.75221 8.41798 7.75221 8.41812 7.75221C8.41825 7.75221 8.41839 7.75221 8.41852 7.75221C8.41866 7.75221 8.4188 7.75221 8.41893 7.75221C8.41907 7.75221 8.41921 7.75221 8.41934 7.75221C8.41948 7.75221 8.41962 7.75221 8.41975 7.75221C8.41989 7.75221 8.42003 7.75221 8.42016 7.75221C8.4203 7.75221 8.42044 7.75221 8.42058 7.75221C8.42071 7.75221 8.42085 7.75221 8.42099 7.75221C8.42113 7.75221 8.42127 7.75221 8.4214 7.75221C8.42154 7.75221 8.42168 7.75221 8.42182 7.75221C8.42196 7.75221 8.4221 7.75221 8.42223 7.75221C8.42237 7.75221 8.42251 7.75221 8.42265 7.75221C8.42279 7.75221 8.42293 7.75221 8.42307 7.75221C8.42321 7.75221 8.42335 7.75221 8.42349 7.75221C8.42363 7.75221 8.42377 7.75221 8.42391 7.75221C8.42405 7.75221 8.42419 7.75221 8.42433 7.75221C8.42447 7.75221 8.42461 7.75221 8.42475 7.75221C8.42489 7.75221 8.42503 7.75221 8.42517 7.75221C8.42531 7.75221 8.42545 7.75221 8.42559 7.75221C8.42573 7.75221 8.42588 7.75221 8.42602 7.75221C8.42616 7.75221 8.4263 7.75221 8.42644 7.75221C8.42658 7.75221 8.42673 7.75221 8.42687 7.75221C8.42701 7.75221 8.42715 7.75221 8.4273 7.75221C8.42744 7.75221 8.42758 7.75221 8.42772 7.75221C8.42787 7.75221 8.42801 7.75221 8.42815 7.75221C8.42829 7.75221 8.42844 7.75221 8.42858 7.75221C8.42872 7.75221 8.42887 7.75221 8.42901 7.75221C8.42916 7.75221 8.4293 7.75221 8.42944 7.75221C8.42959 7.75221 8.42973 7.75221 8.42988 7.75221C8.43002 7.75221 8.43016 7.75221 8.43031 7.75221C8.43045 7.75221 8.4306 7.75221 8.43074 7.75221C8.43089 7.75221 8.43103 7.75221 8.43118 7.75221C8.43132 7.75221 8.43147 7.75221 8.43161 7.75221C8.43176 7.75221 8.4319 7.75221 8.43205 7.75221C8.4322 7.75221 8.43234 7.75221 8.43249 7.75221C8.43263 7.75221 8.43278 7.75221 8.43293 7.75221C8.43307 7.75221 8.43322 7.75221 8.43337 7.75221C8.43351 7.75221 8.43366 7.75221 8.43381 7.75221C8.43395 7.75221 8.4341 7.75221 8.43425 7.75221C8.4344 7.75221 8.43454 7.75221 8.43469 7.75221C8.43484 7.75221 8.43499 7.75221 8.43513 7.75221C8.43528 7.75221 8.43543 7.75221 8.43558 7.75221C8.43573 7.75221 8.43587 7.75221 8.43602 7.75221C8.43617 7.75221 8.43632 7.75221 8.43647 7.75221C8.43662 7.75221 8.43677 7.75221 8.43692 7.75221C8.43707 7.75221 8.43721 7.75221 8.43736 7.75221C8.43751 7.75221 8.43766 7.75221 8.43781 7.75221C8.43796 7.75221 8.43811 7.75221 8.43826 7.75221C8.43841 7.75221 8.43856 7.75221 8.43871 7.75221C8.43886 7.75221 8.43901 7.75221 8.43916 7.75221C8.43932 7.75221 8.43947 7.75221 8.43962 7.75221C8.43977 7.75221 8.43992 7.75221 8.44007 7.75221C8.44022 7.75221 8.44037 7.75221 8.44052 7.75221C8.44068 7.75221 8.44083 7.75221 8.44098 7.75221C8.44113 7.75221 8.44128 7.75221 8.44144 7.75221C8.44159 7.75221 8.44174 7.75221 8.44189 7.75221C8.44205 7.75221 8.4422 7.75221 8.44235 7.75221C8.4425 7.75221 8.44266 7.75221 8.44281 7.75221C8.44296 7.75221 8.44312 7.75221 8.44327 7.75221C8.44342 7.75221 8.44358 7.75221 8.44373 7.75221C8.44388 7.75221 8.44404 7.75221 8.44419 7.75221C8.44435 7.75221 8.4445 7.75221 8.44465 7.75221C8.44481 7.75221 8.44496 7.75221 8.44512 7.75221C8.44527 7.75221 8.44543 7.75221 8.44558 7.75221C8.44574 7.75221 8.44589 7.75221 8.44605 7.75221C8.4462 7.75221 8.44636 7.75221 8.44651 7.75221C8.44667 7.75221 8.44682 7.75221 8.44698 7.75221C8.44714 7.75221 8.44729 7.75221 8.44745 7.75221C8.4476 7.75221 8.44776 7.75221 8.44792 7.75221C8.44807 7.75221 8.44823 7.75221 8.44839 7.75221C8.44854 7.75221 8.4487 7.75221 8.44886 7.75221C8.44901 7.75221 8.44917 7.75221 8.44933 7.75221C8.44949 7.75221 8.44964 7.75221 8.4498 7.75221C8.44996 7.75221 8.45012 7.75221 8.45028 7.75221C8.45043 7.75221 8.45059 7.75221 8.45075 7.75221C8.45091 7.75221 8.45107 7.75221 8.45123 7.75221C8.45138 7.75221 8.45154 7.75221 8.4517 7.75221C8.45186 7.75221 8.45202 7.75221 8.45218 7.75221C8.45234 7.75221 8.4525 7.75221 8.45266 7.75221C8.45282 7.75221 8.45298 7.75221 8.45314 7.75221C8.4533 7.75221 8.45346 7.75221 8.45362 7.75221C8.45378 7.75221 8.45394 7.75221 8.4541 7.75221C8.45426 7.75221 8.45442 7.75221 8.45458 7.75221C8.45474 7.75221 8.4549 7.75221 8.45506 7.75221C8.45522 7.75221 8.45538 7.75221 8.45554 7.75221C8.45571 7.75221 8.45587 7.75221 8.45603 7.75221C8.45619 7.75221 8.45635 7.75221 8.45651 7.75221C8.45668 7.75221 8.45684 7.75221 8.457 7.75221C8.45716 7.75221 8.45732 7.75221 8.45749 7.75221C8.45765 7.75221 8.45781 7.75221 8.45798 7.75221C8.45814 7.75221 8.4583 7.75221 8.45846 7.75221C8.45863 7.75221 8.45879 7.75221 8.45895 7.75221C8.45912 7.75221 8.45928 7.75221 8.45945 7.75221C8.45961 7.75221 8.45977 7.75221 8.45994 7.75221C8.4601 7.75221 8.46027 7.75221 8.46043 7.75221C8.46059 7.75221 8.46076 7.75221 8.46092 7.75221C8.46109 7.75221 8.46125 7.75221 8.46142 7.75221C8.46158 7.75221 8.46175 7.75221 8.46191 7.75221C8.46208 7.75221 8.46224 7.75221 8.46241 7.75221C8.46258 7.75221 8.46274 7.75221 8.46291 7.75221C8.46307 7.75221 8.46324 7.75221 8.46341 7.75221C8.46357 7.75221 8.46374 7.75221 8.4639 7.75221C8.46407 7.75221 8.46424 7.75221 8.4644 7.75221C8.46457 7.75221 8.46474 7.75221 8.46491 7.75221C8.46507 7.75221 8.46524 7.75221 8.46541 7.75221C8.46557 7.75221 8.46574 7.75221 8.46591 7.75221C8.46608 7.75221 8.46625 7.75221 8.46641 7.75221C8.46658 7.75221 8.46675 7.75221 8.46692 7.75221C8.46709 7.75221 8.46726 7.75221 8.46742 7.75221C8.46759 7.75221 8.46776 7.75221 8.46793 7.75221C8.4681 7.75221 8.46827 7.75221 8.46844 7.75221C8.46861 7.75221 8.46878 7.75221 8.46895 7.75221C8.46912 7.75221 8.46929 7.75221 8.46946 7.75221C8.46963 7.75221 8.4698 7.75221 8.46997 7.75221C8.47014 7.75221 8.47031 7.75221 8.47048 7.75221C8.47065 7.75221 8.47082 7.75221 8.47099 7.75221C8.47116 7.75221 8.47133 7.75221 8.4715 7.75221C8.47167 7.75221 8.47184 7.75221 8.47201 7.75221C8.47219 7.75221 8.47236 7.75221 8.47253 7.75221C8.4727 7.75221 8.47287 7.75221 8.47305 7.75221C8.47322 7.75221 8.47339 7.75221 8.47356 7.75221C8.47373 7.75221 8.47391 7.75221 8.47408 7.75221C8.47425 7.75221 8.47442 7.75221 8.4746 7.75221C8.47477 7.75221 8.47494 7.75221 8.47512 7.75221C8.47529 7.75221 8.47546 7.75221 8.47564 7.75221C8.47581 7.75221 8.47598 7.75221 8.47616 7.75221C8.47633 7.75221 8.47651 7.75221 8.47668 7.75221C8.47685 7.75221 8.47703 7.75221 8.4772 7.75221C8.47738 7.75221 8.47755 7.75221 8.47773 7.75221C8.4779 7.75221 8.47808 7.75221 8.47825 7.75221C8.47843 7.75221 8.4786 7.75221 8.47878 7.75221C8.47895 7.75221 8.47913 7.75221 8.4793 7.75221C8.47948 7.75221 8.47966 7.75221 8.47983 7.75221C8.48001 7.75221 8.48018 7.75221 8.48036 7.75221C8.48054 7.75221 8.48071 7.75221 8.48089 7.75221C8.48107 7.75221 8.48124 7.75221 8.48142 7.75221C8.4816 7.75221 8.48177 7.75221 8.48195 7.75221C8.48213 7.75221 8.4823 7.75221 8.48248 7.75221C8.48266 7.75221 8.48284 7.75221 8.48302 7.75221C8.48319 7.75221 8.48337 7.75221 8.48355 7.75221C8.48373 7.75221 8.48391 7.75221 8.48408 7.75221C8.48426 7.75221 8.48444 7.75221 8.48462 7.75221C8.4848 7.75221 8.48498 7.75221 8.48516 7.75221C8.48534 7.75221 8.48551 7.75221 8.48569 7.75221C8.48587 7.75221 8.48605 7.75221 8.48623 7.75221C8.48641 7.75221 8.48659 7.75221 8.48677 7.75221C8.48695 7.75221 8.48713 7.75221 8.48731 7.75221C8.48749 7.75221 8.48767 7.75221 8.48785 7.75221C8.48803 7.75221 8.48821 7.75221 8.4884 7.75221C8.48858 7.75221 8.48876 7.75221 8.48894 7.75221C8.48912 7.75221 8.4893 7.75221 8.48948 7.75221C8.48966 7.75221 8.48985 7.75221 8.49003 7.75221C8.49021 7.75221 8.49039 7.75221 8.49057 7.75221C8.49076 7.75221 8.49094 7.75221 8.49112 7.75221C8.4913 7.75221 8.49148 7.75221 8.49167 7.75221C8.49185 7.75221 8.49203 7.75221 8.49222 7.75221C8.4924 7.75221 8.49258 7.75221 8.49277 7.75221C8.49295 7.75221 8.49313 7.75221 8.49332 7.75221C8.4935 7.75221 8.49368 7.75221 8.49387 7.75221C8.49405 7.75221 8.49424 7.75221 8.49442 7.75221C8.4946 7.75221 8.49479 7.75221 8.49497 7.75221C8.49516 7.75221 8.49534 7.75221 8.49553 7.75221C8.49571 7.75221 8.4959 7.75221 8.49608 7.75221C8.49627 7.75221 8.49645 7.75221 8.49664 7.75221C8.49682 7.75221 8.49701 7.75221 8.49719 7.75221C8.49738 7.75221 8.49757 7.75221 8.49775 7.75221C8.49794 7.75221 8.49812 7.75221 8.49831 7.75221C8.4985 7.75221 8.49868 7.75221 8.49887 7.75221C8.49906 7.75221 8.49924 7.75221 8.49943 7.75221C8.49962 7.75221 8.4998 7.75221 8.49999 7.75221C8.50018 7.75221 8.50037 7.75221 8.50055 7.75221C8.50074 7.75221 8.50093 7.75221 8.50112 7.75221C8.50131 7.75221 8.50149 7.75221 8.50168 7.75221C8.50187 7.75221 8.50206 7.75221 8.50225 7.75221C8.50244 7.75221 8.50262 7.75221 8.50281 7.75221C8.503 7.75221 8.50319 7.75221 8.50338 7.75221C8.50357 7.75221 8.50376 7.75221 8.50395 7.75221C8.50414 7.75221 8.50433 7.75221 8.50452 7.75221C8.50471 7.75221 8.5049 7.75221 8.50509 7.75221C8.50528 7.75221 8.50547 7.75221 8.50566 7.75221C8.50585 7.75221 8.50604 7.75221 8.50623 7.75221C8.50642 7.75221 8.50661 7.75221 8.5068 7.75221C8.50699 7.75221 8.50718 7.75221 8.50737 7.75221C8.50756 7.75221 8.50776 7.75221 8.50795 7.75221C8.50814 7.75221 8.50833 7.75221 8.50852 7.75221C8.50871 7.75221 8.50891 7.75221 8.5091 7.75221C8.50929 7.75221 8.50948 7.75221 8.50968 7.75221C8.50987 7.75221 8.51006 7.75221 8.51025 7.75221C8.51045 7.75221 8.51064 7.75221 8.51083 7.75221C8.51103 7.75221 8.51122 7.75221 8.51141 7.75221C8.51161 7.75221 8.5118 7.75221 8.51199 7.75221C8.51219 7.75221 8.51238 7.75221 8.51257 7.75221C8.51277 7.75221 8.51296 7.75221 8.51316 7.75221C8.51335 7.75221 8.51355 7.75221 8.51374 7.75221C8.51393 7.75221 8.51413 7.75221 8.51432 7.75221C8.51452 7.75221 8.51471 7.75221 8.51491 7.75221C8.5151 7.75221 8.5153 7.75221 8.5155 7.75221C8.51569 7.75221 8.51589 7.75221 8.51608 7.75221C8.51628 7.75221 8.51647 7.75221 8.51667 7.75221C8.51687 7.75221 8.51706 7.75221 8.51726 7.75221C8.51746 7.75221 8.51765 7.75221 8.51785 7.75221C8.51805 7.75221 8.51824 7.75221 8.51844 7.75221C8.51864 7.75221 8.51883 7.75221 8.51903 7.75221C8.51923 7.75221 8.51943 7.75221 8.51962 7.75221C8.51982 7.75221 8.52002 7.75221 8.52022 7.75221C8.52041 7.75221 8.52061 7.75221 8.52081 7.75221C8.52101 7.75221 8.52121 7.75221 8.52141 7.75221C8.52161 7.75221 8.5218 7.75221 8.522 7.75221C8.5222 7.75221 8.5224 7.75221 8.5226 7.75221C8.5228 7.75221 8.523 7.75221 8.5232 7.75221C8.5234 7.75221 8.5236 7.75221 8.5238 7.75221C8.524 7.75221 8.5242 7.75221 8.5244 7.75221C8.5246 7.75221 8.5248 7.75221 8.525 7.75221C8.5252 7.75221 8.5254 7.75221 8.5256 7.75221C8.5258 7.75221 8.526 7.75221 8.5262 7.75221C8.5264 7.75221 8.5266 7.75221 8.5268 7.75221C8.52701 7.75221 8.52721 7.75221 8.52741 7.75221C8.52761 7.75221 8.52781 7.75221 8.52801 7.75221C8.52822 7.75221 8.52842 7.75221 8.52862 7.75221C8.52882 7.75221 8.52903 7.75221 8.52923 7.75221C8.52943 7.75221 8.52963 7.75221 8.52984 7.75221C8.53004 7.75221 8.53024 7.75221 8.53044 7.75221C8.53065 7.75221 8.53085 7.75221 8.53105 7.75221C8.53126 7.75221 8.53146 7.75221 8.53167 7.75221C8.53187 7.75221 8.53207 7.75221 8.53228 7.75221C8.53248 7.75221 8.53269 7.75221 8.53289 7.75221C8.53309 7.75221 8.5333 7.75221 8.5335 7.75221C8.53371 7.75221 8.53391 7.75221 8.53412 7.75221C8.53432 7.75221 8.53453 7.75221 8.53473 7.75221C8.53494 7.75221 8.53514 7.75221 8.53535 7.75221C8.53556 7.75221 8.53576 7.75221 8.53597 7.75221C8.53617 7.75221 8.53638 7.75221 8.53659 7.75221C8.53679 7.75221 8.537 7.75221 8.5372 7.75221C8.53741 7.75221 8.53762 7.75221 8.53782 7.75221C8.53803 7.75221 8.53824 7.75221 8.53845 7.75221C8.53865 7.75221 8.53886 7.75221 8.53907 7.75221C8.53927 7.75221 8.53948 7.75221 8.53969 7.75221C8.5399 7.75221 8.54011 7.75221 8.54031 7.75221C8.54052 7.75221 8.54073 7.75221 8.54094 7.75221C8.54115 7.75221 8.54135 7.75221 8.54156 7.75221C8.54177 7.75221 8.54198 7.75221 8.54219 7.75221C8.5424 7.75221 8.54261 7.75221 8.54282 7.75221C8.54303 7.75221 8.54324 7.75221 8.54345 7.75221C8.54365 7.75221 8.54386 7.75221 8.54407 7.75221C8.54428 7.75221 8.54449 7.75221 8.5447 7.75221C8.54491 7.75221 8.54512 7.75221 8.54534 7.75221C8.54555 7.75221 8.54576 7.75221 8.54597 7.75221C8.54618 7.75221 8.54639 7.75221 8.5466 7.75221C8.54681 7.75221 8.54702 7.75221 8.54723 7.75221C8.54744 7.75221 8.54766 7.75221 8.54787 7.75221C8.54808 7.75221 8.54829 7.75221 8.5485 7.75221C8.54872 7.75221 8.54893 7.75221 8.54914 7.75221C8.54935 7.75221 8.54956 7.75221 8.54978 7.75221C8.54999 7.75221 8.5502 7.75221 8.55042 7.75221C8.55063 7.75221 8.55084 7.75221 8.55105 7.75221C8.55127 7.75221 8.55148 7.75221 8.55169 7.75221C8.55191 7.75221 8.55212 7.75221 8.55234 7.75221C8.55255 7.75221 8.55276 7.75221 8.55298 7.75221C8.55319 7.75221 8.55341 7.75221 8.55362 7.75221C8.55384 7.75221 8.55405 7.75221 8.55426 7.75221C8.55448 7.75221 8.55469 7.75221 8.55491 7.75221C8.55512 7.75221 8.55534 7.75221 8.55555 7.75221C8.55577 7.75221 8.55599 7.75221 8.5562 7.75221C8.55642 7.75221 8.55663 7.75221 8.55685 7.75221C8.55706 7.75221 8.55728 7.75221 8.5575 7.75221C8.55771 7.75221 8.55793 7.75221 8.55815 7.75221C8.55836 7.75221 8.55858 7.75221 8.5588 7.75221C8.55901 7.75221 8.55923 7.75221 8.55945 7.75221C8.55966 7.75221 8.55988 7.75221 8.5601 7.75221C8.56032 7.75221 8.56053 7.75221 8.56075 7.75221C8.56097 7.75221 8.56119 7.75221 8.56141 7.75221C8.56162 7.75221 8.56184 7.75221 8.56206 7.75221C8.56228 7.75221 8.5625 7.75221 8.56272 7.75221C8.56294 7.75221 8.56315 7.75221 8.56337 7.75221C8.56359 7.75221 8.56381 7.75221 8.56403 7.75221C8.56425 7.75221 8.56447 7.75221 8.56469 7.75221C8.56491 7.75221 8.56513 7.75221 8.56535 7.75221C8.56557 7.75221 8.56579 7.75221 8.56601 7.75221C8.56623 7.75221 8.56645 7.75221 8.56667 7.75221C8.56689 7.75221 8.56711 7.75221 8.56733 7.75221C8.56755 7.75221 8.56777 7.75221 8.568 7.75221C8.56822 7.75221 8.56844 7.75221 8.56866 7.75221C8.56888 7.75221 8.5691 7.75221 8.56932 7.75221C8.56955 7.75221 8.56977 7.75221 8.56999 7.75221C8.57021 7.75221 8.57043 7.75221 8.57066 7.75221C8.57088 7.75221 8.5711 7.75221 8.57132 7.75221C8.57155 7.75221 8.57177 7.75221 8.57199 7.75221C8.57222 7.75221 8.57244 7.75221 8.57266 7.75221C8.57289 7.75221 8.57311 7.75221 8.57333 7.75221C8.57356 7.75221 8.57378 7.75221 8.574 7.75221C8.57423 7.75221 8.57445 7.75221 8.57468 7.75221C8.5749 7.75221 8.57512 7.75221 8.57535 7.75221C8.57557 7.75221 8.5758 7.75221 8.57602 7.75221C8.57625 7.75221 8.57647 7.75221 8.5767 7.75221C8.57692 7.75221 8.57715 7.75221 8.57737 7.75221C8.5776 7.75221 8.57782 7.75221 8.57805 7.75221C8.57828 7.75221 8.5785 7.75221 8.57873 7.75221C8.57895 7.75221 8.57918 7.75221 8.57941 7.75221C8.57963 7.75221 8.57986 7.75221 8.58009 7.75221C8.58031 7.75221 8.58054 7.75221 8.58077 7.75221C8.58099 7.75221 8.58122 7.75221 8.58145 7.75221C8.58167 7.75221 8.5819 7.75221 8.58213 7.75221C8.58236 7.75221 8.58258 7.75221 8.58281 7.75221C8.58304 7.75221 8.58327 7.75221 8.5835 7.75221C8.58372 7.75221 8.58395 7.75221 8.58418 7.75221C8.58441 7.75221 8.58464 7.75221 8.58487 7.75221C8.5851 7.75221 8.58533 7.75221 8.58555 7.75221C8.58578 7.75221 8.58601 7.75221 8.58624 7.75221C8.58647 7.75221 8.5867 7.75221 8.58693 7.75221C8.58716 7.75221 8.58739 7.75221 8.58762 7.75221C8.58785 7.75221 8.58808 7.75221 8.58831 7.75221C8.58854 7.75221 8.58877 7.75221 8.589 7.75221C8.58923 7.75221 8.58946 7.75221 8.58969 7.75221C8.58993 7.75221 8.59016 7.75221 8.59039 7.75221C8.59062 7.75221 8.59085 7.75221 8.59108 7.75221C8.59131 7.75221 8.59154 7.75221 8.59178 7.75221C8.59201 7.75221 8.59224 7.75221 8.59247 7.75221C8.5927 7.75221 8.59294 7.75221 8.59317 7.75221C8.5934 7.75221 8.59363 7.75221 8.59387 7.75221C8.5941 7.75221 8.59433 7.75221 8.59457 7.75221C8.5948 7.75221 8.59503 7.75221 8.59527 7.75221C8.5955 7.75221 8.59573 7.75221 8.59597 7.75221C8.5962 7.75221 8.59643 7.75221 8.59667 7.75221C8.5969 7.75221 8.59714 7.75221 8.59737 7.75221C8.5976 7.75221 8.59784 7.75221 8.59807 7.75221C8.59831 7.75221 8.59854 7.75221 8.59878 7.75221C8.59901 7.75221 8.59925 7.75221 8.59948 7.75221C8.59972 7.75221 8.59995 7.75221 8.60019 7.75221C8.60042 7.75221 8.60066 7.75221 8.6009 7.75221C8.60113 7.75221 8.60137 7.75221 8.6016 7.75221C8.60184 7.75221 8.60208 7.75221 8.60231 7.75221C8.60255 7.75221 8.60279 7.75221 8.60302 7.75221C8.60326 7.75221 8.6035 7.75221 8.60373 7.75221C8.60397 7.75221 8.60421 7.75221 8.60444 7.75221C8.60468 7.75221 8.60492 7.75221 8.60516 7.75221C8.60539 7.75221 8.60563 7.75221 8.60587 7.75221C8.60611 7.75221 8.60635 7.75221 8.60658 7.75221C8.60682 7.75221 8.60706 7.75221 8.6073 7.75221C8.60754 7.75221 8.60778 7.75221 8.60802 7.75221C8.60825 7.75221 8.60849 7.75221 8.60873 7.75221C8.60897 7.75221 8.60921 7.75221 8.60945 7.75221C8.60969 7.75221 8.60993 7.75221 8.61017 7.75221C8.61041 7.75221 8.61065 7.75221 8.61089 7.75221C8.61113 7.75221 8.61137 7.75221 8.61161 7.75221C8.61185 7.75221 8.61209 7.75221 8.61233 7.75221C8.61257 7.75221 8.61281 7.75221 8.61305 7.75221C8.61329 7.75221 8.61354 7.75221 8.61378 7.75221C8.61402 7.75221 8.61426 7.75221 8.6145 7.75221C8.61474 7.75221 8.61498 7.75221 8.61523 7.75221C8.61547 7.75221 8.61571 7.75221 8.61595 7.75221C8.6162 7.75221 8.61644 7.75221 8.61668 7.75221C8.61692 7.75221 8.61717 7.75221 8.61741 7.75221C8.61765 7.75221 8.61789 7.75221 8.61814 7.75221C8.61838 7.75221 8.61862 7.75221 8.61887 7.75221C8.61911 7.75221 8.61935 7.75221 8.6196 7.75221C8.61984 7.75221 8.62009 7.75221 8.62033 7.75221C8.62057 7.75221 8.62082 7.75221 8.62106 7.75221C8.62131 7.75221 8.62155 7.75221 8.6218 7.75221C8.62204 7.75221 8.62228 7.75221 8.62253 7.75221C8.62277 7.75221 8.62302 7.75221 8.62326 7.75221C8.62351 7.75221 8.62376 7.75221 8.624 7.75221C8.62425 7.75221 8.62449 7.75221 8.62474 7.75221C8.62498 7.75221 8.62523 7.75221 8.62548 7.75221C8.62572 7.75221 8.62597 7.75221 8.62622 7.75221C8.62646 7.75221 8.62671 7.75221 8.62696 7.75221C8.6272 7.75221 8.62745 7.75221 8.6277 7.75221C8.62794 7.75221 8.62819 7.75221 8.62844 7.75221C8.62869 7.75221 8.62893 7.75221 8.62918 7.75221C8.62943 7.75221 8.62968 7.75221 8.62992 7.75221C8.63017 7.75221 8.63042 7.75221 8.63067 7.75221C8.63092 7.75221 8.63117 7.75221 8.63141 7.75221C8.63166 7.75221 8.63191 7.75221 8.63216 7.75221C8.63241 7.75221 8.63266 7.75221 8.63291 7.75221C8.63316 7.75221 8.63341 7.75221 8.63366 7.75221C8.6339 7.75221 8.63415 7.75221 8.6344 7.75221C8.63465 7.75221 8.6349 7.75221 8.63515 7.75221C8.6354 7.75221 8.63565 7.75221 8.63591 7.75221C8.63616 7.75221 8.63641 7.75221 8.63666 7.75221C8.63691 7.75221 8.63716 7.75221 8.63741 7.75221C8.63766 7.75221 8.63791 7.75221 8.63816 7.75221C8.63841 7.75221 8.63867 7.75221 8.63892 7.75221C8.63917 7.75221 8.63942 7.75221 8.63967 7.75221C8.63993 7.75221 8.64018 7.75221 8.64043 7.75221C8.64068 7.75221 8.64093 7.75221 8.64119 7.75221C8.64144 7.75221 8.64169 7.75221 8.64195 7.75221C8.6422 7.75221 8.64245 7.75221 8.6427 7.75221C8.64296 7.75221 8.64321 7.75221 8.64346 7.75221C8.64372 7.75221 8.64397 7.75221 8.64423 7.75221C8.64448 7.75221 8.64473 7.75221 8.64499 7.75221C8.64524 7.75221 8.6455 7.75221 8.64575 7.75221C8.646 7.75221 8.64626 7.75221 8.64651 7.75221C8.64677 7.75221 8.64702 7.75221 8.64728 7.75221C8.64753 7.75221 8.64779 7.75221 8.64804 7.75221C8.6483 7.75221 8.64855 7.75221 8.64881 7.75221C8.64907 7.75221 8.64932 7.75221 8.64958 7.75221C8.64983 7.75221 8.65009 7.75221 8.65035 7.75221C8.6506 7.75221 8.65086 7.75221 8.65112 7.75221C8.65137 7.75221 8.65163 7.75221 8.65189 7.75221C8.65214 7.75221 8.6524 7.75221 8.65266 7.75221C8.65291 7.75221 8.65317 7.75221 8.65343 7.75221C8.65369 7.75221 8.65394 7.75221 8.6542 7.75221C8.65446 7.75221 8.65472 7.75221 8.65498 7.75221C8.65523 7.75221 8.65549 7.75221 8.65575 7.75221C8.65601 7.75221 8.65627 7.75221 8.65653 7.75221C8.65678 7.75221 8.65704 7.75221 8.6573 7.75221C8.65756 7.75221 8.65782 7.75221 8.65808 7.75221C8.65834 7.75221 8.6586 7.75221 8.65886 7.75221C8.65912 7.75221 8.65938 7.75221 8.65964 7.75221C8.6599 7.75221 8.66016 7.75221 8.66042 7.75221C8.66068 7.75221 8.66094 7.75221 8.6612 7.75221C8.66146 7.75221 8.66172 7.75221 8.66198 7.75221C8.66224 7.75221 8.6625 7.75221 8.66276 7.75221C8.66302 7.75221 8.66329 7.75221 8.66355 7.75221C8.66381 7.75221 8.66407 7.75221 8.66433 7.75221C8.66459 7.75221 8.66486 7.75221 8.66512 7.75221C8.66538 7.75221 8.66564 7.75221 8.6659 7.75221C8.66617 7.75221 8.66643 7.75221 8.66669 7.75221C8.66695 7.75221 8.66722 7.75221 8.66748 7.75221C8.66774 7.75221 8.66801 7.75221 8.66827 7.75221C8.66853 7.75221 8.6688 7.75221 8.66906 7.75221C8.66932 7.75221 8.66959 7.75221 8.66985 7.75221C8.67011 7.75221 8.67038 7.75221 8.67064 7.75221C8.67091 7.75221 8.67117 7.75221 8.67144 7.75221C8.6717 7.75221 8.67196 7.75221 8.67223 7.75221C8.67249 7.75221 8.67276 7.75221 8.67302 7.75221C8.67329 7.75221 8.67355 7.75221 8.67382 7.75221C8.67409 7.75221 8.67435 7.75221 8.67462 7.75221C8.67488 7.75221 8.67515 7.75221 8.67541 7.75221C8.67568 7.75221 8.67595 7.75221 8.67621 7.75221C8.67648 7.75221 8.67675 7.75221 8.67701 7.75221C8.67728 7.75221 8.67755 7.75221 8.67781 7.75221C8.67808 7.75221 8.67835 7.75221 8.67861 7.75221C8.67888 7.75221 8.67915 7.75221 8.67942 7.75221C8.67968 7.75221 8.67995 7.75221 8.68022 7.75221C8.68049 7.75221 8.68076 7.75221 8.68102 7.75221C8.68129 7.75221 8.68156 7.75221 8.68183 7.75221C8.6821 7.75221 8.68237 7.75221 8.68263 7.75221C8.6829 7.75221 8.68317 7.75221 8.68344 7.75221C8.68371 7.75221 8.68398 7.75221 8.68425 7.75221C8.68452 7.75221 8.68479 7.75221 8.68506 7.75221C8.68533 7.75221 8.6856 7.75221 8.68587 7.75221C8.68614 7.75221 8.68641 7.75221 8.68668 7.75221C8.68695 7.75221 8.68722 7.75221 8.68749 7.75221C8.68776 7.75221 8.68803 7.75221 8.6883 7.75221C8.68857 7.75221 8.68884 7.75221 8.68911 7.75221C8.68938 7.75221 8.68966 7.75221 8.68993 7.75221C8.6902 7.75221 8.69047 7.75221 8.69074 7.75221C8.69101 7.75221 8.69129 7.75221 8.69156 7.75221C8.69183 7.75221 8.6921 7.75221 8.69238 7.75221C8.69265 7.75221 8.69292 7.75221 8.69319 7.75221C8.69347 7.75221 8.69374 7.75221 8.69401 7.75221C8.69428 7.75221 8.69456 7.75221 8.69483 7.75221C8.6951 7.75221 8.69538 7.75221 8.69565 7.75221C8.69593 7.75221 8.6962 7.75221 8.69647 7.75221C8.69675 7.75221 8.69702 7.75221 8.6973 7.75221C8.69757 7.75221 8.69784 7.75221 8.69812 7.75221C8.69839 7.75221 8.69867 7.75221 8.69894 7.75221C8.69922 7.75221 8.69949 7.75221 8.69977 7.75221C8.70004 7.75221 8.70032 7.75221 8.70059 7.75221C8.70087 7.75221 8.70114 7.75221 8.70142 7.75221C8.7017 7.75221 8.70197 7.75221 8.70225 7.75221C8.70252 7.75221 8.7028 7.75221 8.70308 7.75221C8.70335 7.75221 8.70363 7.75221 8.70391 7.75221C8.70418 7.75221 8.70446 7.75221 8.70474 7.75221C8.70501 7.75221 8.70529 7.75221 8.70557 7.75221C8.70585 7.75221 8.70612 7.75221 8.7064 7.75221C8.70668 7.75221 8.70696 7.75221 8.70723 7.75221C8.70751 7.75221 8.70779 7.75221 8.70807 7.75221C8.70835 7.75221 8.70862 7.75221 8.7089 7.75221C8.70918 7.75221 8.70946 7.75221 8.70974 7.75221C8.71002 7.75221 8.7103 7.75221 8.71058 7.75221C8.71086 7.75221 8.71113 7.75221 8.71141 7.75221C8.71169 7.75221 8.71197 7.75221 8.71225 7.75221C8.71253 7.75221 8.71281 7.75221 8.71309 7.75221C8.71337 7.75221 8.71365 7.75221 8.71393 7.75221C8.71421 7.75221 8.71449 7.75221 8.71477 7.75221C8.71506 7.75221 8.71534 7.75221 8.71562 7.75221C8.7159 7.75221 8.71618 7.75221 8.71646 7.75221C8.71674 7.75221 8.71702 7.75221 8.7173 7.75221C8.71759 7.75221 8.71787 7.75221 8.71815 7.75221C8.71843 7.75221 8.71871 7.75221 8.719 7.75221C8.71928 7.75221 8.71956 7.75221 8.71984 7.75221C8.72013 7.75221 8.72041 7.75221 8.72069 7.75221C8.72097 7.75221 8.72126 7.75221 8.72154 7.75221C8.72182 7.75221 8.72211 7.75221 8.72239 7.75221C8.72267 7.75221 8.72296 7.75221 8.72324 7.75221C8.72352 7.75221 8.72381 7.75221 8.72409 7.75221C8.72438 7.75221 8.72466 7.75221 8.72494 7.75221C8.72523 7.75221 8.72551 7.75221 8.7258 7.75221C8.72608 7.75221 8.72637 7.75221 8.72665 7.75221C8.72694 7.75221 8.72722 7.75221 8.72751 7.75221C8.72779 7.75221 8.72808 7.75221 8.72836 7.75221C8.72865 7.75221 8.72894 7.75221 8.72922 7.75221C8.72951 7.75221 8.72979 7.75221 8.73008 7.75221C8.73037 7.75221 8.73065 7.75221 8.73094 7.75221V6.75221ZM8.50899 6.76192C8.53046 6.76621 8.53652 6.77098 8.52454 6.76499C8.51335 6.75939 8.49258 6.7475 8.46156 6.72534L7.88032 7.53907C7.99693 7.62237 8.14489 7.7089 8.31288 7.7425L8.50899 6.76192ZM8.52449 6.77865C8.53677 6.79093 8.54532 6.80289 8.55083 6.81239C8.55619 6.82162 8.55788 6.82711 8.55773 6.82664C8.55754 6.82603 8.55575 6.8201 8.55405 6.80737C8.55236 6.79466 8.55094 6.77655 8.55094 6.75221H7.55094C7.55094 6.98902 7.60401 7.27239 7.81738 7.48576L8.52449 6.77865ZM8.55094 6.75221C8.55094 6.71459 8.55815 6.72879 8.53802 6.76503C8.52739 6.78416 8.51169 6.80454 8.4909 6.82255C8.47035 6.84037 8.45063 6.85084 8.43663 6.85645L8.06524 5.92797C7.89714 5.99521 7.75576 6.11397 7.66386 6.27939C7.57706 6.43562 7.55094 6.60316 7.55094 6.75221H8.55094ZM8.42181 6.8621C8.49026 6.83721 8.62421 6.81221 8.85094 6.81221V5.81221C8.571 5.81221 8.30495 5.84054 8.08007 5.92231L8.42181 6.8621ZM8.85094 6.81221H10.1109V5.81221H8.85094V6.81221ZM10.1109 6.81221C11.2847 6.81221 12.248 6.52347 12.8512 5.81684L12.0907 5.16758C11.7605 5.55428 11.1505 5.81221 10.1109 5.81221V6.81221ZM12.8467 5.82211C13.4007 5.19113 13.6909 4.46252 13.6909 3.65221H12.6909C12.6909 4.2019 12.5012 4.69995 12.0952 5.16231L12.8467 5.82211ZM13.6909 3.65221C13.6909 2.82775 13.4218 2.11227 12.8696 1.54381L12.1523 2.2406C12.5068 2.60548 12.6909 3.06333 12.6909 3.65221H13.6909ZM12.8767 1.55134C12.5157 1.16386 11.9979 0.908708 11.3819 0.748337C10.7632 0.587251 10.009 0.512206 9.13094 0.512206V1.51221C9.95955 1.51221 10.622 1.58383 11.13 1.71608C11.6407 1.84904 11.9595 2.03389 12.1451 2.23307L12.8767 1.55134Z" fill="white" mask="url(#path-1-outside-1_22_65)"/>
</svg>
